<?xml version="1.0" encoding="UTF-8"?>
<svg id="Calque_1" data-name="Calque 1" xmlns="http://www.w3.org/2000/svg" viewBox="0 0 323.17 445.32">
  <defs>
    <style>
      {` .cls-1, .cls-2, .cls-3 {
        stroke-width: 0px;
      }

      .cls-1, .cls-4, .cls-5, .cls-6 {
        fill: #ffe470;
      }

      .cls-7 {
        letter-spacing: .11em;
      }

      .cls-7, .cls-8, .cls-9, .cls-10 {
        font-family: P22MackinacProBook, 'P22 Mackinac Pro';
        font-size: 17px;
      }

      .cls-7, .cls-8, .cls-9, .cls-10, .cls-2 {
        fill: #ffe67d;
      }

      .cls-7, .cls-8, .cls-9, .cls-10, .cls-11, .cls-4, .cls-5, .cls-6 {
        isolation: isolate;
      }

      .cls-8 {
        letter-spacing: 0em;
      }

      .cls-9 {
        letter-spacing: .02em;
      }

      .cls-12 {
        letter-spacing: -.03em;
      }

      .cls-13 {
        letter-spacing: 0em;
      }

      .cls-14 {
        letter-spacing: 0em;
      }

      .cls-3 {
        fill: #213996;
      }

      .cls-4 {
        letter-spacing: -.03em;
      }

      .cls-4, .cls-5, .cls-6 {
        font-family: P22MackinacPro-Bold, 'P22 Mackinac Pro';
        font-size: 33.58px;
        font-weight: 700;
      }

      .cls-6 {
        letter-spacing: -.08em;
      }`}
    </style>
  </defs>
  <rect class="cls-3" width="323.17" height="445.32" rx="24.55" ry="24.55"/>
  <path class="cls-2" d="M260.5,179.35c-6.34-18.44-23.3-31.9-42.56-33.72-4.55-.41-105.43-.37-110.87.18-9.43,1.13-16.38,4.25-24.74,10.42-15.12,13.99-19.15,23.34-19.4,46.28-.3,20.46-2.51,51.4,11.76,65.21,6.49,8.08,18.21,15.19,27.42,17,8.36,2.22,76.65.91,106.5,1.13,20.36,2.04,45.5-11.29,49.82-31.28-4.29-.52-34.64.25-33.44-1.04,1.53-1.93,4.46-5.55,5.3-8.6.21-.59.41-.62,2.37-.34,5.63,1,10.04-.78,13.73-2.76,1.06.67-1.64,7.54-.03,7.5,1.83,2.32,2.69-3.99,4.03-3.91,3.39-.4,12.96,3.62,12.39-2.93,1.03-7.17,1.32-63.96-2.28-63.14ZM246.25,258.21c19.34-4.56-8.26,18.69-12.67,19.5-3.53,1.74-2.45.58.28-2.3,4.98-4.59,9.11-12.23,12.38-17.21h0ZM227.05,257.62c18.24.73,16.24-2.06,11.94,6.75-8.7,13.45-18.39,18.51-35,17.26-17.12-6.45.56-24.96,6.62-11.08,1.32,6.39-7.43,8.8-7.98,2.82.01-1.25.23-1.51,1.53-2.58,3.54-3.24-1.75-4.11-3.7-.73-2.84,4.06,1.01,10.05,5.9,10.1,7.04-.63,9.93-9.83,5.23-14.6-7.52-7.99-21.83,1.78-17.24,11.58.97,2.2-.64,1.71-3.25.35-8.65-4.83-20.3-14.86-21.24-24.6,4.86-2.26,10.76-5.36,14.02-10.49,1.33-2.36,8.65-1,11.58-.89,2.42,3.31-8.02,12.14-13.29,15.85-1.27.84-1.93,2.44-1.19,3,.91,1.57,6.37-2.36,7.74-3.3,8.74.12,34.33.57,38.35.58l-.03-.02ZM220.79,251.81c-3.71,1.9-6.09,2.2-16.96,2.2-5.94-.49-12.74,1.13-9.94-1.89,7.18-8.5,10.24-17.19,11.63-25.78.65-4.13,1.24-5.09,2.3-3.75,1.88,2.6,11,6.02,11.32,10.53,0,.58,1.65,3.61,2.68,4.99.73.96.79,1.2.38,1.48-.55.37-7.57.14-12.63-.42-3.55-.58-5.76.05-4.37,2.59,5.19,3.34,33.17-2.77,15.58,10.04h.01ZM247.08,233.85c-2,6.4-8.07,8.28-14.18,7.2-3.7.58,3-23.52-3.54-19.13-1.76,1.16,1.6,21.53-3.89,15.11-7.75-6.61-6.13-32,7.98-22.63,3.64,2.2,4.12,13.23,4.72,17.85,6.21,3.82,2.96-25.53-10.26-23.53-14.84,2.33-7.39,19.35-13.35,14.83-6.4-4.42-14.85-13.6-10.7-20.79.97-1.06,1.21-1.55,1.03-2.2-.41-1.66-2.78-1.21-4.23.75-3.12,3.18,0,11.37,1.96,15.76.77,3.71-1.45,15.53-3.95,20.95-20.53.22-5.47-.37-5.71-31.07-1.17-14.22,14.02-9.16,19.51-17.8,2.29-4.65,5.74-2.46,9.42-1.82,18.21,6.22,28.8,28.19,25.19,46.52ZM206.92,183.41c.71,1.16,2.89,1.63,3.27,2.65-.86,2.91-6.49,6.17-10.15,5.5.01-1.91-.42-7.51.49-8.05,3.14-4.71.37-10.21-5.68-10.32-1.98-.29-2.75.06-2.54-1.2,2.54-4.7,14.56-4.35,16.51.47-1.16,2.51-4.47,8.29-1.89,10.94h0ZM210.78,176.6c4.06-4.86,1.95,6.68-1.41,4.19-.45-.72.31-2.89,1.41-4.2h0ZM196.33,176.91c5.42,1.8-1.96,7.23.14,10.67-.47,11.14-17.37-15.89-.15-10.66h0ZM259.08,242.28c-10,.47-9.39,1.33-7.95-11.5,1.48-20.19-11.19-43.96-31.71-47.51-11.31-1.64,8.29-5.98-14.55-17.87-3.04.11-9.45-.41-10.83,1-6.94,3.29-10.33,11.64-7.88,18.55,1.73,7.21,10.99,8.32,6.67,11.42-2.72,2.69-3.16,4.17-3.41,12.08-.08,6.54-1.32,15.4-2.23,18.13-1.17,5.19-3.14,9.83-7.03,15.07-2.17,2.97-9.59,8.67-12.62,6.85-.86-1.97-1.57-6.42-1.2-8.76,2.64-.09,13.35,1.07,11.88-1.42,0-1.38-.38-1.44-10.29-2.17-2.34-.18-4.47-.24-4.75-.14-3.07,4.98,3.26,21.62,7.29,27.07,4.5,7.15,12.56,14.64,22.17,18.8-58.27-2.62-85.46,11.75-113.59-14.59-12.63-16.53-12.02-16.7-12.61-43.2.5-17.08-.97-39.33,3.87-46.64,6.83-15.31,20.67-26.2,37.85-28.45,6.56-.51,114.86-.48,120.53,2.48,11.88,3.87,24.73,16.37,28.53,28.73,2.51,7.68,2.3,5.24,2.51,29.93.22,25.45.15,31.71-.65,32.14Z"/>
  <g class="cls-11">
    <text class="cls-6" transform="translate(71.01 105.84)"><tspan x="0" y="0">P</tspan></text>
    <text class="cls-5" transform="translate(89.34 105.84)"><tspan x="0" y="0">A</tspan></text>
    <text class="cls-5" transform="translate(113.92 105.84)"><tspan x="0" y="0">SSPO</tspan></text>
    <text class="cls-4" transform="translate(202.16 105.84)"><tspan x="0" y="0">R</tspan></text>
    <text class="cls-5" transform="translate(225.19 105.84)"><tspan x="0" y="0">T</tspan></text>
  </g>
  <rect class="cls-1" x="141.69" y="405.23" width="42.88" height="10.76"/>
  <rect class="cls-1" x="141.69" y="390.98" width="42.88" height="10.76"/>
  <g class="cls-11">
    <text class="cls-10" transform="translate(111.78 334.94)"><tspan x="0" y="0">Sa</tspan><tspan class="cls-12" x="18.6" y="0">f</tspan><tspan x="24.58" y="0">e </tspan></text>
    <text class="cls-8" transform="translate(150.68 334.94)"><tspan x="0" y="0">R</tspan></text>
    <text class="cls-10" transform="translate(161.79 334.94)"><tspan x="0" y="0">e</tspan><tspan class="cls-13" x="9.21" y="0">p</tspan><tspan class="cls-14" x="19.46" y="0">u</tspan><tspan x="29.94" y="0">b</tspan></text>
    <text class="cls-10" transform="translate(201.3 334.94)"><tspan x="0" y="0">l</tspan></text>
    <text class="cls-10" transform="translate(206.32 334.94)"><tspan x="0" y="0">ic</tspan></text>
    <text class="cls-10" transform="translate(128.65 355.34)"><tspan x="0" y="0">o</tspan></text>
    <text class="cls-7" transform="translate(138.38 355.34)"><tspan x="0" y="0">f</tspan></text>
    <text class="cls-10" transform="translate(146.52 355.34)"><tspan x="0" y="0" xml:space="preserve"> A</tspan></text>
    <text class="cls-10" transform="translate(162.02 355.34)"><tspan x="0" y="0">p</tspan></text>
    <text class="cls-10" transform="translate(172.26 355.34)"><tspan x="0" y="0">e </tspan></text>
    <text class="cls-9" transform="translate(184.51 355.34)"><tspan x="0" y="0">I</tspan></text>
    <text class="cls-10" transform="translate(190.14 355.34)"><tspan x="0" y="0">D</tspan></text>
  </g>
</svg>