<?xml version="1.0" encoding="UTF-8"?>
<svg id="PasswordGoldenComponent" xmlns="http://www.w3.org/2000/svg" viewBox="0 0 200.68 338.93">
  <defs>
    <style>
      .cls-1 { letter-spacing: -.08em; }
      .cls-2 { letter-spacing: .09em; }
      .cls-3, .cls-4 { fill: #ffe470; }
      .cls-3, .cls-5 { stroke-width: 0px; }
      .cls-6 { letter-spacing: 0em; }
      .cls-7 { letter-spacing: -.03em; }
      .cls-8 { letter-spacing: 0em; }
      .cls-9 { letter-spacing: -.01em; }
      .cls-10 { letter-spacing: 0em; }
      .cls-4 { font-family: 'P22 Mackinac Pro', sans-serif; font-weight: 700; font-size: 33.58px; }
      .cls-11 { letter-spacing: .02em; }
      .cls-12 { letter-spacing: 0em; }
      .cls-5, .cls-13 { fill: #ffe67d; }
      .cls-13 { font-family: 'P22 Mackinac Pro', sans-serif; font-style: italic; font-size: 17px; }
      .cls-14 { letter-spacing: 0em; }
    </style>
  </defs>
  <path class="cls-5" d="M197.7,102.29c-6.34-18.44-23.3-31.9-42.56-33.72-4.55-.41-105.43-.37-110.87.18-2.27.24-4.44.59-4.82.79-.37.21-1.44.51-2.37.69-4.85,1-12.46,4.89-17.55,8.94-1.75,1.41-6.19,5.78-7.5,7.36-4.58,5.61-7.91,11.87-9.73,18.27-1.56,5.57-1.89,7.46-2.04,20.32-.06.11-.11.22-.13.33-.14.48-.18,9.12-.07,19.2.14,19.75.28,21.23,2.1,27.74,1.82,6.39,5.16,12.66,9.73,18.27,1.31,1.58,5.75,5.95,7.5,7.36,5.1,4.06,12.7,7.95,17.55,8.95.93.17,2,.48,2.37.69.38.21,2.55.55,4.82.79,4.54.46,75.75.56,101.68.34,2.18.12,4.56.15,6.75.07,4.99-.21,10.56-1.17,13.25-2.27.38-.18,1.62-.65,2.75-1.07,10.77-4.16,21.26-13.66,26.45-23.98.89-1.79,1.17-3.68.62-4.03-.18-.1-6.16-.21-13.35-.21-14.86-.04-20.09-.24-20.09-.83.03-.21.65-1,1.41-1.75,1.17-1.21,3.24-4.78,3.89-6.85.21-.59.41-.62,2.37-.34,4.68.65,9.12-.07,11.97-1.93.79-.55,1.58-.93,1.76-.83.37.24.34,2.1-.1,3.75-.76,2.89-.76,3.16.07,3.75.45.31.93.55,1.07.55.17,0,.75-1,1.34-2.23.69-1.44,1.24-2.23,1.62-2.23.31.03,2.75.24,5.4.48,6.44.66,6.4.66,6.99-3.41.31-2.17.51-9.53.65-24.7.21-26.83-.04-30.06-2.92-38.43ZM183.46,181.15c.79-.59,6.4-.55,6.91.07.48.58.21,1.3-1.3,3.47-2.45,3.54-4.92,6.4-7.51,8.67-2.89,2.51-6.67,5.33-8.05,5.95-.45.21-1.68.82-2.72,1.34-1.03.55-2.07.89-2.27.83-.21-.07.93-1.48,2.55-3.13,4.02-4.16,6.77-7.81,9.49-12.63,1.31-2.27,2.59-4.34,2.89-4.58ZM164.25,180.56c14.59.18,14.46.14,14.69.73.21.55-.92,3-2.75,6.02-2.65,4.37-8.85,10.8-13.01,13.49-2.4,1.54-4.09,2.42-6.14,3.18-3.99.21-9.46.41-15.85.59h0c-3.48-1.33-6.09-3.74-7.01-6.55-.56-1.62-.56-1.86-.04-3.68,1.27-4.37,5.33-6.57,9.87-5.33,1.66.48,3.68,2.72,3.79,4.23.17,3.51-.41,4.96-2.61,6.06-1.38.73-1.68.75-2.61.38-2.1-.86-2.75-1.66-2.75-3.24,0-1.3.18-1.58,1.38-2.58,1.41-1.14,1.72-1.96.97-2.72-.93-.93-2.93-.14-4.44,1.75-.83,1.1-1.21,3.34-.86,5.23.41,2.24,4.03,4.96,6.57,4.99,1.38,0,4.27-1.41,5.41-2.61,1.27-1.34,2.34-3.82,2.34-5.4,0-2.17-1-5.02-2.23-6.4-4.13-4.58-12.49-3.92-16.03,1.2-2.31,3.38-2.79,6.82-1.44,10.05.82,2.03.13,2.17-2.93.62-5.37-2.72-11.84-8.02-15.59-12.77-1.93-2.45-4.02-5.85-5.3-8.61-1.14-2.5-1.21-2.72-.66-3.3.31-.34,1.14-.82,1.82-1.03,1.48-.48,4.51-2.1,6.4-3.41,1.38-.96,4.61-4.3,5.78-6.02.38-.48,1-1.03,1.38-1.2.73-.31,8.5-.14,10.19.21.73.14.79.31.62,1.34-.45,2.79-8.43,11.22-13.72,14.45-1.27.79-2.03,2.34-1.38,3,.83.83,2.34.38,5.09-1.41l2.72-1.82,17.72.27c9.73.18,19.03.31,20.64.31ZM157.99,174.74c-3.71,1.9-6.09,2.2-16.96,2.2-5.46,0-10.18-.14-10.46-.31-.41-.28-.31-.55.52-1.58,4.44-5.51,7.57-10.84,8.94-15.18,1.55-4.95,2.2-7.54,2.69-10.6.65-4.13,1.24-5.09,2.3-3.75.66.79,6.3,4.92,8.33,6.09,1.27.72,1.82,1.3,2.34,2.51.34.82.65,1.71.65,1.93,0,.58,1.65,3.61,2.68,4.99.73.96.79,1.2.38,1.48-.55.37-7.57.14-12.63-.42-2.75-.31-3.34-.27-4.06.18-.93.65-1.07,1.62-.31,2.41.62.59,1.96.79,7.23,1.06,3.71.18,10.6.76,12.83,1.07.62.1,1.24.41,1.34.69.52,1.34-3.16,5.88-5.82,7.22ZM184.28,156.79c-1.25,3.24-2.75,5.06-5.41,6.47-1.55.86-6.67,1.27-8.77.73-1.03-.28-1.2-.48-1.3-1.52-.07-.62.07-2.09.27-3.23.24-1.14.42-4.68.42-7.84,0-5.02-.07-5.89-.62-6.47-.73-.83-1.58-.83-2.31-.07-.41.52-.51,1.62-.55,5.78-.04,2.83-.17,6.4-.31,7.92-.31,3.44-.83,3.68-3.03,1.41-1.65-1.71-2.61-3.41-3.65-6.36-.82-2.4-1.24-10.14-.65-12.28.89-3.27,3.58-5.64,6.71-5.92,2.41-.21,4.06.38,5.57,1.93,2.61,2.69,3.85,6.54,4.17,12.8.1,2.55.34,4.85.55,5.05.17.24.69.45,1.17.45.62,0,.96-.31,1.37-1.31.48-1.14.48-1.86.14-6.09-.27-2.85-.72-5.68-1.14-6.94-.89-2.75-3.13-6.16-4.95-7.51-1.9-1.44-4.96-2.37-6.85-2.13-3.51.48-7.19,2.96-8.98,5.99-.76,1.27-1,2.3-1.31,5.57-.45,4.61-.69,4.85-3.06,3.27-4.26-2.89-6.91-5.57-9.15-9.4-1.69-2.85-2.79-6.05-2.79-8.15,0-1.65.14-1.99,1.24-3.24.97-1.06,1.21-1.55,1.03-2.2-.41-1.66-2.78-1.21-4.23.75-1.96,2.65-1.75,7.29.48,12.04.69,1.41,1.34,3.1,1.48,3.72.69,3.02-1.1,13.8-3.16,18.95l-.79,2-4.64-.07c-4.27-.1-6.54-.48-6.54-1.14,0-.14.41-1.3.89-2.61,1.38-3.75,2.13-6.33,2.55-8.74.21-1.24.51-2.72.69-3.27.37-1.24.93-7.5,1.34-15.24.31-5.99.38-6.2,2.48-8.3,1.14-1.14,4.82-3.13,5.78-3.13.24,0,1.72-.38,3.27-.86,3.2-1,6.53-3.27,7.98-5.51,1.93-2.92,2.09-3,4.78-2.75,1.3.1,3.41.55,4.64.93,4.95,1.55,8.98,4.06,12.93,8.01,2.27,2.28,6.68,8.2,6.68,8.99,0,.1.27.62.62,1.1.38.51,1,1.86,1.44,3,.45,1.14.93,2.23,1.11,2.4.34.52,1.79,5.27,2.54,8.43.45,1.86.62,3.96.62,7.57.04,4.37-.07,5.23-.75,7.02ZM144.13,106.35c.52.62,1.48,1.35,2.1,1.62.65.28,1.17.73,1.17,1.03,0,.86-2.75,3.61-4.58,4.54-1.11.55-2.34.86-3.61.89l-1.96.07-.07-3.58c-.07-3,0-3.71.56-4.47,1.61-2.3,1.75-5.36.27-7.5-1.14-1.68-3.02-2.58-5.95-2.82-1.41-.1-2.54-.31-2.54-.48v-.72c0-.69,2.44-2.24,4.71-2.96,2.61-.86,4.86-.86,7.02,0,2.48,1,4.78,2.64,4.78,3.43,0,.38-.59,1.55-1.27,2.65-1.1,1.72-1.27,2.31-1.41,4.58-.14,2.45-.1,2.68.79,3.71ZM147.98,99.54c1.35-1.58,1.52-1.62,2.07-.72.52.82-.17,3.47-1.14,4.54-.59.65-2.03.89-2.34.37-.45-.72.31-2.89,1.41-4.2ZM133.53,99.84c2.51,1.17,2.75,2.45.97,5.4-1.27,2.1-1.48,3.41-.83,5.27.31.86.28,1.24-.17,1.93-.31.48-.86.86-1.21.86-.89,0-2.92-1.68-4.12-3.43-1.11-1.62-2.45-5.41-2.45-6.88s1.1-3.24,2.23-3.48c2-.45,4.13-.27,5.57.34ZM196.29,165.22c-.45.31-6.2.18-7.81-.17-.42-.07-.83-.42-.89-.73-.18-.65.13-4.95.75-10.6.59-5.3-.41-13.42-2.2-18.06-.24-.65-.83-2.13-1.24-3.27-.83-2.14-2.44-5.68-3.16-6.88-2.48-4.06-4.61-6.99-6.78-9.22-5.54-5.71-10.97-8.71-18.33-10.08-4.23-.79-4.37-.93-3.44-3.52,1.41-3.82.72-6.36-2.1-8.05-.86-.51-2.13-1.52-2.78-2.23-.62-.73-2.31-1.93-3.72-2.69l-2.51-1.38h-4.47c-4.27,0-4.58.07-6.36,1-3.24,1.72-5.65,4.06-7.09,7.02-1.21,2.41-1.34,2.96-1.44,6.02-.14,2.89-.04,3.65.65,5.51.45,1.16,1.24,2.75,1.75,3.54,1.14,1.68,3.58,3.99,5.02,4.75,1.66.86,1.62,1.48-.1,3.13-2.72,2.69-3.16,4.17-3.41,12.08-.14,3.79-.38,7.78-.55,8.91-.83,5.57-1.34,8.36-1.68,9.22-.21.55-.38,1.31-.38,1.72-.04.41-.31,1.38-.69,2.13-.38.76-.65,1.58-.69,1.82,0,1.03-3.54,7.29-5.27,9.4-2.27,2.75-3.82,3.99-7.18,5.82-2.79,1.48-4.99,1.93-5.44,1.03-.62-1.16-1.41-5.46-1.3-7.05l.1-1.71,5.41.13c5.84.14,6.47-.03,6.47-1.55,0-1.38-.38-1.44-10.29-2.17-2.34-.18-4.47-.24-4.75-.14-1.14.45-1.14,2.1-.14,8.36,1.07,6.43,3.85,13.52,7.43,18.71.75,1.11,1.65,2.41,1.96,2.89,2.04,3.06,7.33,8.02,12.7,11.87,1.74,1.25,4.63,2.77,7.51,4.04-33.89.71-81.17.92-84.62.41-12.05-1.82-21.09-6.47-28.97-15-3.75-4.03-6.85-8.67-8.88-13.45-.89-2.07-1.89-4.85-1.89-5.19,0-.21-.28-1.31-.66-2.41-.85-2.7-1.07-6.22-1.18-22.15v-.13c.05-2.62.08-6.56.12-12.52.1-19.58.28-23.47,1.2-26.39.38-1.1.66-2.2.66-2.41,0-.34,1-3.13,1.89-5.19,2.03-4.78,5.13-9.43,8.88-13.45,7.88-8.53,16.93-13.18,28.97-15,5.3-.79,113.86.13,118.74,1.93.75.31,1.55.51,1.79.55.66,0,6.61,2.92,8.95,4.37,5.09,3.13,10.8,8.61,14.11,13.53,1.93,2.82,4.54,8.05,5.47,10.83,2.51,7.68,2.3,5.24,2.51,29.93.24,25.43.1,31.69-.62,32.14Z"/>
  <text class="cls-4" transform="translate(8.21 28.77)"><tspan class="cls-1" x="0" y="0">P</tspan><tspan class="cls-8" x="18.33" y="0">A</tspan><tspan x="42.91" y="0">SSPO</tspan><tspan class="cls-7" x="131.15" y="0">R</tspan><tspan class="cls-10" x="154.18" y="0">T</tspan></text>
  <rect class="cls-3" x="78.9" y="328.16" width="42.88" height="10.76"/>
  <rect class="cls-3" x="78.9" y="313.91" width="42.88" height="10.76"/>
  <text class="cls-13" transform="translate(48.98 257.88)"><tspan x="0" y="0">Safe </tspan><tspan class="cls-9" x="38.9" y="0">R</tspan><tspan x="50.01" y="0">epub</tspan><tspan class="cls-12" x="89.52" y="0">l</tspan><tspan x="94.54" y="0">ic</tspan><tspan x="16.87" y="20.4">o</tspan><tspan class="cls-2" x="26.6" y="20.4">f</tspan><tspan x="34.74" y="20.4" xml:space="preserve"> A</tspan><tspan class="cls-6" x="50.24" y="20.4">p</tspan><tspan x="60.48" y="20.4">e </tspan><tspan class="cls-11" x="72.73" y="20.4">I</tspan><tspan class="cls-14" x="78.36" y="20.4">D</tspan></text>
</svg>